<svg width="54" height="24" viewBox="0 0 54 24" fill="none" xmlns="http://www.w3.org/2000/svg">
<path d="M18.9127 0H23.9155V4.46197H18.9127V0Z" fill="white"/>
<path fill-rule="evenodd" clip-rule="evenodd" d="M16.1239 18.7352C16.1239 19.5098 16.379 20.6532 16.6204 21.7354C16.7794 22.4478 16.9324 23.1337 17.0028 23.6704H12C11.8563 23.1042 11.7465 21.9549 11.7127 21.3634C10.9183 22.9099 9.13521 24 6.38028 24C1.66479 24 0 21.0592 0 18.1859C0 14.7549 2.37465 11.9324 8.9831 11.9324H11.2225V10.5465C11.2225 8.99155 10.7408 7.7831 8.50141 7.7831C6.26197 7.7831 5.75493 8.91549 5.57746 10.3183H0.735211C0.938028 7.30986 2.73803 4.25916 8.57746 4.25916C13.0817 4.25916 16.1239 5.80563 16.1239 10.5211V18.7352ZM11.3831 15.1268H9.0676C5.65352 15.1268 5.01127 16.5127 5.01127 17.7887C5.01127 19.0648 5.78873 20.2056 7.69014 20.2056C10.6817 20.2056 11.3831 18.2197 11.3831 15.5239V15.1268Z" fill="white"/>
<path d="M18.9127 6.72675H23.9155V23.6704H18.9127V6.72675Z" fill="white"/>
<path d="M26.831 5.54367C26.907 6.85353 26.907 8.86479 26.907 11.9916V23.662H31.9099V15.9296C31.9099 11.5606 33.6845 10.2338 36.4817 10.293V5.23944C34.1578 5.24789 32.4845 7.28451 31.8423 8.88169C31.8423 7.58029 31.8085 6.36338 31.7071 5.54367H26.831Z" fill="white"/>
<path fill-rule="evenodd" clip-rule="evenodd" d="M53.1021 21.7354C53.261 22.4478 53.4141 23.1337 53.4845 23.6704H48.4817C48.338 23.1042 48.2282 21.9549 48.1944 21.3634C47.4 22.9099 45.6169 24 42.862 24C38.1465 24 36.4817 21.0592 36.4817 18.1859C36.4817 14.7549 38.8563 11.9324 45.4648 11.9324H47.7042V10.5465C47.7042 8.99155 47.2225 7.7831 44.9831 7.7831C42.7437 7.7831 42.2366 8.91549 42.0592 10.3183H37.2169C37.4197 7.30986 39.2197 4.25916 45.0592 4.25916C49.5634 4.25916 52.6056 5.80563 52.6056 10.5211V18.7352C52.6056 19.5098 52.8607 20.6532 53.1021 21.7354ZM47.8648 15.1268H45.5493C42.1352 15.1268 41.493 16.5127 41.493 17.7887C41.493 19.0648 42.2704 20.2056 44.1718 20.2056C47.1634 20.2056 47.8648 18.2197 47.8648 15.5239V15.1268Z" fill="white"/>
</svg>
