<svg width="960" height="560" viewBox="0 0 960 560" fill="none" xmlns="http://www.w3.org/2000/svg">
<g filter="url(#filter0_b_7_1996)">
<rect width="960" height="560" rx="12" fill="#430000" fill-opacity="0.4"/>
<rect x="2" y="2" width="956" height="556" rx="10" stroke="url(#paint0_linear_7_1996)" stroke-width="4"/>
</g>
<g opacity="0.3">
<path d="M772.967 129.342L860.122 164.555L714.582 524.778C713.043 528.589 708.956 530.711 704.953 529.778V529.778C678.861 523.699 653.872 513.603 630.881 499.851V499.851C627.353 497.741 625.887 493.376 627.427 489.565L772.967 129.342Z" stroke="white" stroke-width="4"/>
<rect width="94" height="17" transform="matrix(0.927184 0.374607 0.374607 -0.927184 772.967 129.342)" stroke="white" stroke-width="4"/>
<path d="M789.001 89.656L829.341 41.2371C834.626 34.8943 843.401 32.6899 851.056 35.7826L859.999 39.3956L868.941 43.0086C876.596 46.1013 881.377 53.7832 880.772 62.0168L876.156 124.869L866.49 148.793L779.335 113.58L789.001 89.656Z" stroke="white" stroke-width="4"/>
</g>
<!-- <path d="M579.523 347.6C579.523 357.2 579.657 365.2 579.923 371.6C580.19 377.867 580.723 382.867 581.523 386.6C582.457 390.333 583.723 392.933 585.323 394.4C587.057 395.867 589.323 396.6 592.123 396.6C594.923 396.6 597.123 395.867 598.723 394.4C600.457 392.933 601.723 390.333 602.523 386.6C603.457 382.867 604.057 377.867 604.323 371.6C604.59 365.2 604.723 357.2 604.723 347.6C604.723 338 604.59 330.067 604.323 323.8C604.057 317.4 603.457 312.333 602.523 308.6C601.723 304.867 600.457 302.267 598.723 300.8C597.123 299.333 594.923 298.6 592.123 298.6C589.323 298.6 587.057 299.333 585.323 300.8C583.723 302.267 582.457 304.867 581.523 308.6C580.723 312.333 580.19 317.4 579.923 323.8C579.657 330.067 579.523 338 579.523 347.6ZM541.123 347.6C541.123 334.267 541.99 322.933 543.723 313.6C545.457 304.133 548.323 296.467 552.323 290.6C556.323 284.6 561.59 280.267 568.123 277.6C574.657 274.8 582.657 273.4 592.123 273.4C601.59 273.4 609.59 274.8 616.123 277.6C622.657 280.267 627.923 284.6 631.923 290.6C635.923 296.467 638.79 304.133 640.523 313.6C642.257 322.933 643.123 334.267 643.123 347.6C643.123 360.933 642.257 372.333 640.523 381.8C638.79 391.133 635.923 398.8 631.923 404.8C627.923 410.667 622.657 414.867 616.123 417.4C609.59 419.933 601.59 421.2 592.123 421.2C582.657 421.2 574.657 419.933 568.123 417.4C561.59 414.867 556.323 410.667 552.323 404.8C548.323 398.8 545.457 391.133 543.723 381.8C541.99 372.333 541.123 360.933 541.123 347.6ZM649.434 379.4H683.034V419H649.434V379.4ZM697.588 320.2C697.988 305.4 701.854 294.6 709.188 287.8C716.521 280.867 727.454 277.4 741.988 277.4C750.654 277.4 757.854 278.267 763.588 280C769.321 281.733 773.854 284.267 777.188 287.6C780.654 290.933 783.054 295.067 784.388 300C785.854 304.8 786.588 310.333 786.588 316.6C786.588 319.4 786.254 322.333 785.588 325.4C784.921 328.333 783.788 331.133 782.188 333.8C780.721 336.333 778.721 338.6 776.188 340.6C773.654 342.6 770.521 344 766.788 344.8V345.2C775.054 346.8 780.854 350.467 784.188 356.2C787.521 361.8 789.188 368.467 789.188 376.2C789.188 392.2 785.321 403.733 777.588 410.8C769.854 417.733 758.321 421.2 742.988 421.2C734.988 421.2 727.988 420.533 721.988 419.2C716.121 417.867 711.254 415.467 707.388 412C703.521 408.533 700.654 403.933 698.787 398.2C696.921 392.333 695.988 385.133 695.988 376.6H730.788C730.788 380.6 730.988 383.933 731.388 386.6C731.921 389.267 732.588 391.533 733.388 393.4C734.988 396.867 737.788 398.6 741.788 398.6C743.921 398.6 745.654 398.333 746.988 397.8C748.321 397.133 749.321 396 749.988 394.4C750.788 392.667 751.321 390.4 751.588 387.6C751.854 384.667 751.988 381 751.988 376.6C751.988 369.667 750.854 365 748.588 362.6C746.454 360.2 743.054 359 738.388 359H728.988V335.8H734.388C737.188 335.8 739.588 335.533 741.588 335C743.588 334.467 745.254 333.467 746.588 332C747.921 330.533 748.921 328.533 749.588 326C750.254 323.333 750.588 319.933 750.588 315.8C750.588 309.8 749.788 305.8 748.188 303.8C746.721 301.667 744.388 300.6 741.188 300.6C737.588 300.6 734.988 302 733.388 304.8C731.921 307.6 731.188 312.733 731.188 320.2H697.588ZM801.094 280.2H893.494V308C888.56 315.733 883.96 324.2 879.694 333.4C875.56 342.467 871.827 351.867 868.494 361.6C865.294 371.333 862.627 381.133 860.494 391C858.494 400.733 857.16 410.067 856.494 419H818.094C819.027 409.933 820.56 400.667 822.694 391.2C824.827 381.733 827.494 372.4 830.694 363.2C834.027 353.867 837.96 344.8 842.494 336C847.027 327.067 852.227 318.6 858.094 310.6H801.094V280.2Z" fill="white"/> -->
<path d="M806.832 461.616H849.264V464.304H806.832V461.616ZM825.984 457.68H829.728V463.392H825.984V457.68ZM807.744 494.256L847.2 491.616L847.44 494.112L807.984 496.752L807.744 494.256ZM810.096 488.832L844.368 486.576L844.608 488.832L810.336 491.136L810.096 488.832ZM838.416 480.768L840.528 482.736C833.76 484.56 822.768 485.616 813.648 486.192C813.552 485.568 813.216 484.608 812.928 484.08C821.856 483.456 832.752 482.304 838.416 480.768ZM824.688 484.128H828.24V497.136C828.24 498.72 828.864 499.056 832.128 499.056C833.616 499.056 841.584 499.056 843.6 499.056C845.952 499.056 846.432 498.432 846.672 495.12C847.44 495.648 848.784 496.032 849.696 496.224C849.264 500.592 848.112 501.696 843.936 501.696C842.64 501.696 833.136 501.696 831.936 501.696C826.272 501.696 824.688 500.832 824.688 497.136V484.128ZM807.504 477.84H848.592V485.424H845.28V480.432H810.672V485.76H807.504V477.84ZM816.864 469.248V472.992H839.376V469.248H816.864ZM813.312 466.944H843.12V475.296H813.312V466.944ZM864.144 474.432V482.16H887.904V474.432H864.144ZM860.64 471.216H891.6V485.376H860.64V471.216ZM855.312 462.48H896.832V465.84H855.312V462.48ZM874.032 457.68H877.68V472.656H874.032V457.68ZM879.168 483.408H882.816V496.272C882.816 497.712 883.2 497.952 885.216 497.952C886.224 497.952 890.88 497.952 892.176 497.952C894.144 497.952 894.432 497.04 894.624 490.848C895.44 491.52 897.024 492.096 898.032 492.336C897.6 499.584 896.544 501.408 892.464 501.408C891.504 501.408 885.792 501.408 884.88 501.408C880.368 501.408 879.168 500.256 879.168 496.32V483.408ZM868.224 484.656H872.064C871.056 493.44 868.176 499.056 856.176 501.936C855.84 500.976 854.832 499.44 854.064 498.672C865.056 496.416 867.36 491.856 868.224 484.656Z" fill="white"/>
<path d="M400 97L200 297M200 97L400 297" stroke="#FF8080" stroke-width="40" stroke-linecap="round" stroke-linejoin="round"/>
<path d="M254.46 387.672L257.716 384.944C262.424 388.332 269.2 393.392 272.368 396.868L267.924 400.872C265.196 397.616 259.212 392.6 254.46 388.948V411.74H248.74V390.268C244.736 394.536 240.028 398.364 234.748 401.092C233.912 399.684 232.284 397.528 231.14 396.34C239.148 392.6 246.012 385.78 250.104 379.048H232.548V373.68H270.696V379.048H257.012C256.264 380.412 255.384 381.776 254.46 383.096V387.672ZM303.872 385.516H298.812V387.892H303.872V385.516ZM313.728 387.892V385.516H308.536V387.892H313.728ZM308.536 394.008H313.728V391.544H308.536V394.008ZM298.812 394.008H303.872V391.544H298.812V394.008ZM298.812 397.792V404.392H293.884V381.732H303.74C301.716 380.808 299.648 379.928 297.844 379.18L301.232 376.408C302.772 376.98 304.62 377.684 306.38 378.476C307.612 377.772 308.8 376.98 309.9 376.144H294.28V372.184H314.476L315.532 371.92L318.612 374.384C316.412 376.496 313.64 378.652 310.78 380.368C311.748 380.852 312.672 381.292 313.42 381.732H318.744V399.86C318.744 402.016 318.348 403.072 316.94 403.776C315.576 404.524 313.64 404.524 311.044 404.524C310.824 403.248 310.296 401.576 309.724 400.432C311.132 400.476 312.628 400.476 313.068 400.476C313.596 400.432 313.728 400.256 313.728 399.816V397.792H308.536V404.216H303.872V397.792H298.812ZM289.22 378.036L284.424 379.708C283.94 377.728 282.796 374.516 282.048 372.14L286.668 370.732C287.46 373.108 288.604 376.056 289.22 378.036ZM289.616 390.488L291.816 391.28C291.068 395.284 289.88 399.42 288.384 402.72C289.088 403.16 289.924 403.776 291.112 404.48C294.104 406.284 298.24 406.548 303.388 406.548C308.448 406.548 316.324 406.108 321.164 405.404C320.592 406.812 319.712 409.364 319.668 410.772C316.016 410.992 308.272 411.3 303.124 411.3C297.272 411.3 293.576 410.816 290.408 408.968C288.56 407.956 287.02 406.504 286.096 406.504C285.084 406.504 283.5 409.496 282.444 412.004L278.924 407.032C280.464 405.184 282.092 403.732 283.544 402.852C284.556 400.652 285.436 397.88 286.096 395.196H280.552C281.564 392.6 282.752 389.08 283.72 385.648H279.76V380.984H290.056C289.132 384.064 288.076 387.584 287.064 390.664H288.824L289.616 390.488ZM349.06 375.88V385.472H351.524V378.564H358.784V375.88H349.06ZM358.784 385.472V381.82H355.308V385.472H358.784ZM355.748 397.66V394.58H351.788V397.66H355.748ZM345.804 389.432V404.612H341.272V385.472H344.528V372.008H363.492V385.472H366.704V400.168C366.704 402.236 366.352 403.336 364.988 404.04C363.712 404.7 361.908 404.744 359.532 404.744C359.4 403.6 358.916 402.104 358.388 400.96H351.788V402.324H348.048V391.236H359.532V400.696C360.368 400.696 361.072 400.696 361.336 400.696C361.82 400.696 361.952 400.564 361.952 400.124V389.432H345.804ZM337.664 378.036L332.868 379.708C332.384 377.728 331.196 374.56 330.448 372.14L335.068 370.732C335.904 373.108 337.048 376.056 337.664 378.036ZM338.06 390.488L340.26 391.28C339.468 395.284 338.324 399.42 336.828 402.72C337.532 403.16 338.368 403.776 339.512 404.48C342.548 406.284 346.684 406.548 351.832 406.548C356.848 406.548 364.768 406.108 369.652 405.404C369.036 406.812 368.156 409.364 368.112 410.772C364.504 410.992 356.716 411.3 351.568 411.3C345.716 411.3 342.02 410.816 338.852 408.968C337.004 407.956 335.42 406.504 334.54 406.504C333.528 406.504 331.944 409.496 330.844 412.004L327.368 407.032C328.908 405.184 330.492 403.732 331.988 402.808C333 400.652 333.88 397.88 334.54 395.196H328.996C330.008 392.6 331.152 389.08 332.164 385.648H328.204V380.984H338.5C337.576 384.064 336.52 387.584 335.464 390.664H337.268L338.06 390.488Z" fill="white"/>
<path d="M240.236 436.6H285.036V440.4H244.636V469H281.036V472.8H244.636V508H240.236V436.6ZM322.171 497.8H321.971C321.371 499.333 320.504 500.8 319.371 502.2C318.237 503.533 316.837 504.733 315.171 505.8C313.571 506.867 311.737 507.7 309.671 508.3C307.604 508.9 305.337 509.2 302.871 509.2C297.404 509.2 293.171 508.033 290.171 505.7C287.171 503.3 285.671 499.633 285.671 494.7C285.671 491.7 286.271 489.267 287.471 487.4C288.671 485.467 290.171 483.967 291.971 482.9C293.837 481.767 295.871 480.967 298.071 480.5C300.337 480.033 302.504 479.7 304.571 479.5L310.471 479C313.204 478.8 315.337 478.5 316.871 478.1C318.471 477.633 319.671 477.033 320.471 476.3C321.271 475.5 321.771 474.5 321.971 473.3C322.171 472.1 322.271 470.6 322.271 468.8C322.271 467.4 322.004 466.1 321.471 464.9C320.937 463.7 320.104 462.633 318.971 461.7C317.837 460.767 316.371 460.033 314.571 459.5C312.771 458.967 310.571 458.7 307.971 458.7C303.371 458.7 299.637 459.833 296.771 462.1C293.971 464.367 292.437 467.8 292.171 472.4H288.371C288.637 466.733 290.437 462.5 293.771 459.7C297.171 456.833 301.971 455.4 308.171 455.4C314.371 455.4 318.871 456.633 321.671 459.1C324.537 461.5 325.971 464.667 325.971 468.6V498.5C325.971 499.233 325.971 499.967 325.971 500.7C326.037 501.433 326.171 502.1 326.371 502.7C326.571 503.3 326.904 503.8 327.371 504.2C327.837 504.533 328.504 504.7 329.371 504.7C330.037 504.7 330.971 504.6 332.171 504.4V507.6C331.171 507.867 330.137 508 329.071 508C327.537 508 326.304 507.8 325.371 507.4C324.504 507 323.837 506.467 323.371 505.8C322.904 505.133 322.571 504.367 322.371 503.5C322.237 502.567 322.171 501.567 322.171 500.5V497.8ZM322.171 478.8C321.237 479.933 319.804 480.7 317.871 481.1C316.004 481.5 313.904 481.8 311.571 482L305.171 482.6C303.304 482.8 301.437 483.1 299.571 483.5C297.704 483.833 296.004 484.433 294.471 485.3C293.004 486.167 291.804 487.367 290.871 488.9C289.937 490.367 289.471 492.3 289.471 494.7C289.471 498.5 290.671 501.333 293.071 503.2C295.471 505 298.771 505.9 302.971 505.9C307.304 505.9 310.737 505.133 313.271 503.6C315.804 502 317.737 500.2 319.071 498.2C320.404 496.133 321.237 494.167 321.571 492.3C321.971 490.367 322.171 489.067 322.171 488.4V478.8ZM338.971 446.9V436.6H342.771V446.9H338.971ZM338.971 508V456.6H342.771V508H338.971ZM359.568 436.6V508H355.768V436.6H359.568Z" fill="white"/>
<defs>
<filter id="filter0_b_7_1996" x="-16" y="-16" width="992" height="592" filterUnits="userSpaceOnUse" color-interpolation-filters="sRGB">
<feFlood flood-opacity="0" result="BackgroundImageFix"/>
<feGaussianBlur in="BackgroundImageFix" stdDeviation="8"/>
<feComposite in2="SourceAlpha" operator="in" result="effect1_backgroundBlur_7_1996"/>
<feBlend mode="normal" in="SourceGraphic" in2="effect1_backgroundBlur_7_1996" result="shape"/>
</filter>
<linearGradient id="paint0_linear_7_1996" x1="153.5" y1="-1.76317e-05" x2="729.5" y2="560" gradientUnits="userSpaceOnUse">
<stop stop-color="#FF8080"/>
<stop offset="1" stop-color="#FF8080" stop-opacity="0"/>
</linearGradient>
</defs>
</svg>
