<svg width="960" height="560" viewBox="0 0 960 560" fill="none" xmlns="http://www.w3.org/2000/svg">
<g filter="url(#filter0_b_7_1981)">
<rect width="960" height="560" rx="12" fill="#002201" fill-opacity="0.5"/>
<rect x="2" y="2" width="956" height="556" rx="10" stroke="url(#paint0_linear_7_1981)" stroke-width="4"/>
</g>
<g opacity="0.3">
<path d="M772.967 129.342L860.122 164.555L714.582 524.778C713.043 528.589 708.956 530.711 704.953 529.778V529.778C678.861 523.699 653.872 513.603 630.881 499.851V499.851C627.353 497.741 625.887 493.376 627.427 489.565L772.967 129.342Z" stroke="white" stroke-width="4"/>
<rect width="94" height="17" transform="matrix(0.927184 0.374607 0.374607 -0.927184 772.967 129.342)" stroke="white" stroke-width="4"/>
<path d="M789.001 89.656L829.341 41.2371C834.626 34.8943 843.401 32.6899 851.056 35.7826L859.999 39.3956L868.941 43.0086C876.596 46.1013 881.377 53.7832 880.772 62.0168L876.156 124.869L866.49 148.793L779.335 113.58L789.001 89.656Z" stroke="white" stroke-width="4"/>
</g>
<!-- <path d="M579.523 347.6C579.523 357.2 579.657 365.2 579.923 371.6C580.19 377.867 580.723 382.867 581.523 386.6C582.457 390.333 583.723 392.933 585.323 394.4C587.057 395.867 589.323 396.6 592.123 396.6C594.923 396.6 597.123 395.867 598.723 394.4C600.457 392.933 601.723 390.333 602.523 386.6C603.457 382.867 604.057 377.867 604.323 371.6C604.59 365.2 604.723 357.2 604.723 347.6C604.723 338 604.59 330.067 604.323 323.8C604.057 317.4 603.457 312.333 602.523 308.6C601.723 304.867 600.457 302.267 598.723 300.8C597.123 299.333 594.923 298.6 592.123 298.6C589.323 298.6 587.057 299.333 585.323 300.8C583.723 302.267 582.457 304.867 581.523 308.6C580.723 312.333 580.19 317.4 579.923 323.8C579.657 330.067 579.523 338 579.523 347.6ZM541.123 347.6C541.123 334.267 541.99 322.933 543.723 313.6C545.457 304.133 548.323 296.467 552.323 290.6C556.323 284.6 561.59 280.267 568.123 277.6C574.657 274.8 582.657 273.4 592.123 273.4C601.59 273.4 609.59 274.8 616.123 277.6C622.657 280.267 627.923 284.6 631.923 290.6C635.923 296.467 638.79 304.133 640.523 313.6C642.257 322.933 643.123 334.267 643.123 347.6C643.123 360.933 642.257 372.333 640.523 381.8C638.79 391.133 635.923 398.8 631.923 404.8C627.923 410.667 622.657 414.867 616.123 417.4C609.59 419.933 601.59 421.2 592.123 421.2C582.657 421.2 574.657 419.933 568.123 417.4C561.59 414.867 556.323 410.667 552.323 404.8C548.323 398.8 545.457 391.133 543.723 381.8C541.99 372.333 541.123 360.933 541.123 347.6ZM649.434 379.4H683.034V419H649.434V379.4ZM728.788 419V322.6H701.988V299.4C707.721 299.4 712.654 299.067 716.788 298.4C720.921 297.6 724.454 296.4 727.388 294.8C730.321 293.067 732.721 290.8 734.588 288C736.454 285.067 737.988 281.533 739.188 277.4H765.988V419H728.788ZM799.294 364.6L844.094 280.2H884.494V365.8H896.894V392.6H884.494V419H849.694V392.6H799.294V364.6ZM850.894 365.8V318.6H850.494L827.294 365.8H850.894Z" fill="white"/> -->
<path d="M806.832 461.616H849.264V464.304H806.832V461.616ZM825.984 457.68H829.728V463.392H825.984V457.68ZM807.744 494.256L847.2 491.616L847.44 494.112L807.984 496.752L807.744 494.256ZM810.096 488.832L844.368 486.576L844.608 488.832L810.336 491.136L810.096 488.832ZM838.416 480.768L840.528 482.736C833.76 484.56 822.768 485.616 813.648 486.192C813.552 485.568 813.216 484.608 812.928 484.08C821.856 483.456 832.752 482.304 838.416 480.768ZM824.688 484.128H828.24V497.136C828.24 498.72 828.864 499.056 832.128 499.056C833.616 499.056 841.584 499.056 843.6 499.056C845.952 499.056 846.432 498.432 846.672 495.12C847.44 495.648 848.784 496.032 849.696 496.224C849.264 500.592 848.112 501.696 843.936 501.696C842.64 501.696 833.136 501.696 831.936 501.696C826.272 501.696 824.688 500.832 824.688 497.136V484.128ZM807.504 477.84H848.592V485.424H845.28V480.432H810.672V485.76H807.504V477.84ZM816.864 469.248V472.992H839.376V469.248H816.864ZM813.312 466.944H843.12V475.296H813.312V466.944ZM864.144 474.432V482.16H887.904V474.432H864.144ZM860.64 471.216H891.6V485.376H860.64V471.216ZM855.312 462.48H896.832V465.84H855.312V462.48ZM874.032 457.68H877.68V472.656H874.032V457.68ZM879.168 483.408H882.816V496.272C882.816 497.712 883.2 497.952 885.216 497.952C886.224 497.952 890.88 497.952 892.176 497.952C894.144 497.952 894.432 497.04 894.624 490.848C895.44 491.52 897.024 492.096 898.032 492.336C897.6 499.584 896.544 501.408 892.464 501.408C891.504 501.408 885.792 501.408 884.88 501.408C880.368 501.408 879.168 500.256 879.168 496.32V483.408ZM868.224 484.656H872.064C871.056 493.44 868.176 499.056 856.176 501.936C855.84 500.976 854.832 499.44 854.064 498.672C865.056 496.416 867.36 491.856 868.224 484.656Z" fill="white"/>
<path d="M160 185.517L260.268 296L440 98" stroke="#30BF36" stroke-width="40" stroke-linecap="round" stroke-linejoin="round"/>
<path d="M279.672 385.516H274.612V387.892H279.672V385.516ZM289.528 387.892V385.516H284.336V387.892H289.528ZM284.336 394.008H289.528V391.544H284.336V394.008ZM274.612 394.008H279.672V391.544H274.612V394.008ZM274.612 397.792V404.392H269.684V381.732H279.54C277.516 380.808 275.448 379.928 273.644 379.18L277.032 376.408C278.572 376.98 280.42 377.684 282.18 378.476C283.412 377.772 284.6 376.98 285.7 376.144H270.08V372.184H290.276L291.332 371.92L294.412 374.384C292.212 376.496 289.44 378.652 286.58 380.368C287.548 380.852 288.472 381.292 289.22 381.732H294.544V399.86C294.544 402.016 294.148 403.072 292.74 403.776C291.376 404.524 289.44 404.524 286.844 404.524C286.624 403.248 286.096 401.576 285.524 400.432C286.932 400.476 288.428 400.476 288.868 400.476C289.396 400.432 289.528 400.256 289.528 399.816V397.792H284.336V404.216H279.672V397.792H274.612ZM265.02 378.036L260.224 379.708C259.74 377.728 258.596 374.516 257.848 372.14L262.468 370.732C263.26 373.108 264.404 376.056 265.02 378.036ZM265.416 390.488L267.616 391.28C266.868 395.284 265.68 399.42 264.184 402.72C264.888 403.16 265.724 403.776 266.912 404.48C269.904 406.284 274.04 406.548 279.188 406.548C284.248 406.548 292.124 406.108 296.964 405.404C296.392 406.812 295.512 409.364 295.468 410.772C291.816 410.992 284.072 411.3 278.924 411.3C273.072 411.3 269.376 410.816 266.208 408.968C264.36 407.956 262.82 406.504 261.896 406.504C260.884 406.504 259.3 409.496 258.244 412.004L254.724 407.032C256.264 405.184 257.892 403.732 259.344 402.852C260.356 400.652 261.236 397.88 261.896 395.196H256.352C257.364 392.6 258.552 389.08 259.52 385.648H255.56V380.984H265.856C264.932 384.064 263.876 387.584 262.864 390.664H264.624L265.416 390.488ZM324.86 375.88V385.472H327.324V378.564H334.584V375.88H324.86ZM334.584 385.472V381.82H331.108V385.472H334.584ZM331.548 397.66V394.58H327.588V397.66H331.548ZM321.604 389.432V404.612H317.072V385.472H320.328V372.008H339.292V385.472H342.504V400.168C342.504 402.236 342.152 403.336 340.788 404.04C339.512 404.7 337.708 404.744 335.332 404.744C335.2 403.6 334.716 402.104 334.188 400.96H327.588V402.324H323.848V391.236H335.332V400.696C336.168 400.696 336.872 400.696 337.136 400.696C337.62 400.696 337.752 400.564 337.752 400.124V389.432H321.604ZM313.464 378.036L308.668 379.708C308.184 377.728 306.996 374.56 306.248 372.14L310.868 370.732C311.704 373.108 312.848 376.056 313.464 378.036ZM313.86 390.488L316.06 391.28C315.268 395.284 314.124 399.42 312.628 402.72C313.332 403.16 314.168 403.776 315.312 404.48C318.348 406.284 322.484 406.548 327.632 406.548C332.648 406.548 340.568 406.108 345.452 405.404C344.836 406.812 343.956 409.364 343.912 410.772C340.304 410.992 332.516 411.3 327.368 411.3C321.516 411.3 317.82 410.816 314.652 408.968C312.804 407.956 311.22 406.504 310.34 406.504C309.328 406.504 307.744 409.496 306.644 412.004L303.168 407.032C304.708 405.184 306.292 403.732 307.788 402.808C308.8 400.652 309.68 397.88 310.34 395.196H304.796C305.808 392.6 306.952 389.08 307.964 385.648H304.004V380.984H314.3C313.376 384.064 312.32 387.584 311.264 390.664H313.068L313.86 390.488Z" fill="white"/>
<path d="M205.128 436.6H235.528C237.528 436.6 239.728 436.833 242.128 437.3C244.595 437.767 246.861 438.733 248.928 440.2C251.061 441.6 252.828 443.633 254.228 446.3C255.628 448.9 256.328 452.333 256.328 456.6C256.328 462.867 254.395 467.7 250.528 471.1C246.661 474.5 241.128 476.2 233.928 476.2H209.528V508H205.128V436.6ZM209.528 472.4H234.628C237.828 472.4 240.528 471.933 242.728 471C244.995 470 246.795 468.733 248.128 467.2C249.461 465.667 250.428 463.967 251.028 462.1C251.628 460.233 251.928 458.367 251.928 456.5C251.928 455.167 251.728 453.6 251.328 451.8C250.928 449.933 250.128 448.167 248.928 446.5C247.728 444.767 246.028 443.333 243.828 442.2C241.695 441 238.828 440.4 235.228 440.4H209.528V472.4ZM294.583 497.8H294.383C293.783 499.333 292.916 500.8 291.783 502.2C290.649 503.533 289.249 504.733 287.583 505.8C285.983 506.867 284.149 507.7 282.083 508.3C280.016 508.9 277.749 509.2 275.283 509.2C269.816 509.2 265.583 508.033 262.583 505.7C259.583 503.3 258.083 499.633 258.083 494.7C258.083 491.7 258.683 489.267 259.883 487.4C261.083 485.467 262.583 483.967 264.383 482.9C266.249 481.767 268.283 480.967 270.483 480.5C272.749 480.033 274.916 479.7 276.983 479.5L282.883 479C285.616 478.8 287.749 478.5 289.283 478.1C290.883 477.633 292.083 477.033 292.883 476.3C293.683 475.5 294.183 474.5 294.383 473.3C294.583 472.1 294.683 470.6 294.683 468.8C294.683 467.4 294.416 466.1 293.883 464.9C293.349 463.7 292.516 462.633 291.383 461.7C290.249 460.767 288.783 460.033 286.983 459.5C285.183 458.967 282.983 458.7 280.383 458.7C275.783 458.7 272.049 459.833 269.183 462.1C266.383 464.367 264.849 467.8 264.583 472.4H260.783C261.049 466.733 262.849 462.5 266.183 459.7C269.583 456.833 274.383 455.4 280.583 455.4C286.783 455.4 291.283 456.633 294.083 459.1C296.949 461.5 298.383 464.667 298.383 468.6V498.5C298.383 499.233 298.383 499.967 298.383 500.7C298.449 501.433 298.583 502.1 298.783 502.7C298.983 503.3 299.316 503.8 299.783 504.2C300.249 504.533 300.916 504.7 301.783 504.7C302.449 504.7 303.383 504.6 304.583 504.4V507.6C303.583 507.867 302.549 508 301.483 508C299.949 508 298.716 507.8 297.783 507.4C296.916 507 296.249 506.467 295.783 505.8C295.316 505.133 294.983 504.367 294.783 503.5C294.649 502.567 294.583 501.567 294.583 500.5V497.8ZM294.583 478.8C293.649 479.933 292.216 480.7 290.283 481.1C288.416 481.5 286.316 481.8 283.983 482L277.583 482.6C275.716 482.8 273.849 483.1 271.983 483.5C270.116 483.833 268.416 484.433 266.883 485.3C265.416 486.167 264.216 487.367 263.283 488.9C262.349 490.367 261.883 492.3 261.883 494.7C261.883 498.5 263.083 501.333 265.483 503.2C267.883 505 271.183 505.9 275.383 505.9C279.716 505.9 283.149 505.133 285.683 503.6C288.216 502 290.149 500.2 291.483 498.2C292.816 496.133 293.649 494.167 293.983 492.3C294.383 490.367 294.583 489.067 294.583 488.4V478.8ZM312.283 490.9C312.416 493.3 312.949 495.433 313.883 497.3C314.816 499.1 316.016 500.667 317.483 502C319.016 503.267 320.783 504.233 322.783 504.9C324.783 505.567 326.949 505.9 329.283 505.9C330.949 505.9 332.716 505.767 334.583 505.5C336.516 505.167 338.283 504.6 339.883 503.8C341.549 503 342.916 501.9 343.983 500.5C345.049 499.033 345.583 497.2 345.583 495C345.583 492.133 344.716 489.967 342.983 488.5C341.249 487.033 339.049 485.9 336.383 485.1C333.783 484.3 330.949 483.667 327.883 483.2C324.883 482.667 322.049 481.9 319.383 480.9C316.783 479.9 314.616 478.5 312.883 476.7C311.149 474.833 310.283 472.133 310.283 468.6C310.283 466.067 310.849 463.967 311.983 462.3C313.116 460.567 314.549 459.2 316.283 458.2C318.083 457.2 320.083 456.5 322.283 456.1C324.483 455.633 326.683 455.4 328.883 455.4C331.549 455.4 334.049 455.7 336.383 456.3C338.716 456.9 340.716 457.867 342.383 459.2C344.116 460.533 345.449 462.233 346.383 464.3C347.383 466.367 347.883 468.867 347.883 471.8H344.083C344.083 469.467 343.683 467.467 342.883 465.8C342.149 464.133 341.083 462.8 339.683 461.8C338.349 460.733 336.749 459.967 334.883 459.5C333.016 458.967 331.016 458.7 328.883 458.7C327.149 458.7 325.383 458.867 323.583 459.2C321.849 459.533 320.283 460.1 318.883 460.9C317.483 461.7 316.316 462.733 315.383 464C314.516 465.267 314.083 466.8 314.083 468.6C314.083 470.667 314.583 472.333 315.583 473.6C316.583 474.867 317.883 475.9 319.483 476.7C321.149 477.433 322.983 478.033 324.983 478.5C327.049 478.967 329.116 479.433 331.183 479.9C333.716 480.367 336.083 480.933 338.283 481.6C340.549 482.2 342.483 483.067 344.083 484.2C345.749 485.267 347.049 486.667 347.983 488.4C348.916 490.133 349.383 492.333 349.383 495C349.383 497.8 348.749 500.1 347.483 501.9C346.216 503.7 344.616 505.167 342.683 506.3C340.749 507.367 338.583 508.1 336.183 508.5C333.849 508.967 331.549 509.2 329.283 509.2C326.349 509.2 323.616 508.8 321.083 508C318.616 507.267 316.449 506.133 314.583 504.6C312.716 503 311.249 501.067 310.183 498.8C309.116 496.533 308.549 493.9 308.483 490.9H312.283ZM360.427 490.9C360.561 493.3 361.094 495.433 362.027 497.3C362.961 499.1 364.161 500.667 365.627 502C367.161 503.267 368.927 504.233 370.927 504.9C372.927 505.567 375.094 505.9 377.427 505.9C379.094 505.9 380.861 505.767 382.727 505.5C384.661 505.167 386.427 504.6 388.027 503.8C389.694 503 391.061 501.9 392.127 500.5C393.194 499.033 393.727 497.2 393.727 495C393.727 492.133 392.861 489.967 391.127 488.5C389.394 487.033 387.194 485.9 384.527 485.1C381.927 484.3 379.094 483.667 376.027 483.2C373.027 482.667 370.194 481.9 367.527 480.9C364.927 479.9 362.761 478.5 361.027 476.7C359.294 474.833 358.427 472.133 358.427 468.6C358.427 466.067 358.994 463.967 360.127 462.3C361.261 460.567 362.694 459.2 364.427 458.2C366.227 457.2 368.227 456.5 370.427 456.1C372.627 455.633 374.827 455.4 377.027 455.4C379.694 455.4 382.194 455.7 384.527 456.3C386.861 456.9 388.861 457.867 390.527 459.2C392.261 460.533 393.594 462.233 394.527 464.3C395.527 466.367 396.027 468.867 396.027 471.8H392.227C392.227 469.467 391.827 467.467 391.027 465.8C390.294 464.133 389.227 462.8 387.827 461.8C386.494 460.733 384.894 459.967 383.027 459.5C381.161 458.967 379.161 458.7 377.027 458.7C375.294 458.7 373.527 458.867 371.727 459.2C369.994 459.533 368.427 460.1 367.027 460.9C365.627 461.7 364.461 462.733 363.527 464C362.661 465.267 362.227 466.8 362.227 468.6C362.227 470.667 362.727 472.333 363.727 473.6C364.727 474.867 366.027 475.9 367.627 476.7C369.294 477.433 371.127 478.033 373.127 478.5C375.194 478.967 377.261 479.433 379.327 479.9C381.861 480.367 384.227 480.933 386.427 481.6C388.694 482.2 390.627 483.067 392.227 484.2C393.894 485.267 395.194 486.667 396.127 488.4C397.061 490.133 397.527 492.333 397.527 495C397.527 497.8 396.894 500.1 395.627 501.9C394.361 503.7 392.761 505.167 390.827 506.3C388.894 507.367 386.727 508.1 384.327 508.5C381.994 508.967 379.694 509.2 377.427 509.2C374.494 509.2 371.761 508.8 369.227 508C366.761 507.267 364.594 506.133 362.727 504.6C360.861 503 359.394 501.067 358.327 498.8C357.261 496.533 356.694 493.9 356.627 490.9H360.427Z" fill="white"/>
<defs>
<filter id="filter0_b_7_1981" x="-16" y="-16" width="992" height="592" filterUnits="userSpaceOnUse" color-interpolation-filters="sRGB">
<feFlood flood-opacity="0" result="BackgroundImageFix"/>
<feGaussianBlur in="BackgroundImageFix" stdDeviation="8"/>
<feComposite in2="SourceAlpha" operator="in" result="effect1_backgroundBlur_7_1981"/>
<feBlend mode="normal" in="SourceGraphic" in2="effect1_backgroundBlur_7_1981" result="shape"/>
</filter>
<linearGradient id="paint0_linear_7_1981" x1="145" y1="-2.46953e-05" x2="776" y2="560" gradientUnits="userSpaceOnUse">
<stop stop-color="#30BF36"/>
<stop offset="1" stop-color="#30BF36" stop-opacity="0"/>
</linearGradient>
</defs>
</svg>
