<svg width="960" height="560" viewBox="0 0 960 560" fill="none" xmlns="http://www.w3.org/2000/svg">
<g filter="url(#filter0_b_5_1471)">
<rect width="960" height="560" rx="12" fill="black" fill-opacity="0.4"/>
<!-- <path d="M223.808 255.216H227.264V261.072C227.264 265.248 226.208 270.336 221.072 273.744C220.592 273.072 219.2 271.824 218.48 271.344C223.088 268.368 223.808 264.384 223.808 261.024V255.216ZM235.52 255.216H238.928V267.024C238.928 268.08 239.072 268.272 239.84 268.272C240.224 268.272 241.808 268.272 242.288 268.272C243.104 268.272 243.296 267.648 243.392 263.04C244.064 263.568 245.504 264.096 246.416 264.336C246.128 269.952 245.264 271.44 242.672 271.44C242.048 271.44 239.936 271.44 239.312 271.44C236.384 271.44 235.52 270.48 235.52 267.072V255.216ZM226.4 277.872C229.712 286.128 236.864 292.272 246.512 294.72C245.696 295.488 244.64 296.928 244.16 297.84C234.176 294.912 227.024 288.288 223.184 278.88L226.4 277.872ZM239.84 274.512H240.56L241.184 274.368L243.488 275.28C240.08 287.856 231.056 294.768 220.544 297.84C220.16 296.976 219.248 295.44 218.576 294.672C228.272 292.224 236.96 285.744 239.84 275.088V274.512ZM220.688 274.512H241.232V277.776H220.688V274.512ZM225.248 255.216H237.248V258.432H225.248V255.216ZM204.08 268.224H218.384V271.104H204.08V268.224ZM204.32 255.408H218.288V258.288H204.32V255.408ZM204.08 274.656H218.384V277.536H204.08V274.656ZM201.824 261.696H220.064V264.672H201.824V261.696ZM205.808 281.136H218.384V295.152H205.808V292.128H215.216V284.112H205.808V281.136ZM204.032 281.136H207.152V297.36H204.032V281.136ZM270.56 254.112H273.968V265.344H270.56V254.112ZM282.944 254.112H286.4V265.344H282.944V254.112ZM279.728 274.752H282.704V297.6H279.728V274.752ZM262.784 258.192H293.936V261.36H262.784V258.192ZM271.664 280.656H290.768V283.248H271.664V280.656ZM271.664 287.376H290.768V289.92H271.664V287.376ZM265.184 267.024H294.128V270.192H265.184V267.024ZM263.6 267.024H266.96V277.392C266.96 283.392 266.288 292.032 262.496 297.84C261.968 297.216 260.576 296.064 259.808 295.632C263.264 290.256 263.6 282.768 263.6 277.344V267.024ZM269.84 273.744H291.248V276.48H272.96V297.84H269.84V273.744ZM289.76 273.744H292.928V294.336C292.928 295.968 292.64 296.832 291.488 297.36C290.336 297.84 288.512 297.888 285.68 297.888C285.536 297.072 285.2 295.872 284.768 295.056C286.832 295.104 288.512 295.104 289.04 295.056C289.616 295.008 289.76 294.864 289.76 294.336V273.744ZM259.136 253.968L262.496 254.88C259.76 263.184 255.488 271.632 250.736 277.248C250.4 276.384 249.44 274.464 248.816 273.552C253.04 268.752 256.832 261.36 259.136 253.968ZM255.296 265.728L258.608 262.416L258.704 262.512V297.84H255.296V265.728ZM298.832 256.032H314.432V259.2H298.832V256.032ZM297.776 271.248H316.112V274.512H297.776V271.248ZM305.696 272.832H309.152V293.616C309.152 295.536 308.768 296.592 307.376 297.12C306.032 297.696 303.92 297.744 300.608 297.744C300.464 296.784 299.936 295.296 299.456 294.336C301.904 294.384 304.16 294.384 304.832 294.336C305.504 294.336 305.696 294.144 305.696 293.568V272.832ZM313.328 256.032H314.096L314.768 255.84L317.072 257.376C314.768 261.072 311.312 265.2 308.288 267.744C307.76 267.12 306.8 266.16 306.176 265.632C308.816 263.376 311.84 259.488 313.328 256.752V256.032ZM315.104 271.248H315.632L316.16 271.104L318.416 271.728C317.168 275.472 315.632 279.648 314.384 282.288L311.6 281.568C312.752 279.12 314.144 275.088 315.104 271.776V271.248ZM300.176 264.432L302.096 262.032C306.128 264.144 310.976 267.36 313.328 269.808L311.264 272.448C308.96 269.952 304.208 266.592 300.176 264.432ZM317.408 255.936H341.792V259.056H317.408V255.936ZM322.592 273.792V278.496H336.656V273.792H322.592ZM322.592 281.136V285.888H336.656V281.136H322.592ZM322.592 266.448V271.104H336.656V266.448H322.592ZM319.232 263.664H340.16V288.72H319.232V263.664ZM327.728 257.472L331.808 257.952C330.992 260.736 330.128 263.76 329.36 265.776L326.192 265.152C326.768 262.992 327.44 259.68 327.728 257.472ZM324.032 289.584L327.2 291.456C324.56 294 320.048 296.592 316.208 298.032C315.68 297.312 314.528 296.208 313.808 295.584C317.648 294.192 321.968 291.696 324.032 289.584ZM331.472 291.648L334.208 289.824C337.136 291.504 340.832 294.096 342.8 295.92L339.92 297.984C338.144 296.208 334.448 293.472 331.472 291.648ZM348.752 257.184H366.224V259.824H348.752V257.184ZM368.72 260.544H383.552V263.76H368.72V260.544ZM346.928 263.424H367.808V266.16H346.928V263.424ZM355.808 253.92H359.072V264.72H355.808V253.92ZM355.808 271.824H359.072V283.824H355.808V271.824ZM348.128 275.28H366.56V278.064H348.128V275.28ZM346.448 283.248C351.776 282.864 359.888 282.096 367.76 281.28V284.112C360.176 284.928 352.304 285.792 346.784 286.32L346.448 283.248ZM359.216 264.96H362V269.28C362 270 362.096 270.096 362.816 270.096C363.104 270.096 364.544 270.096 364.928 270.096C365.648 270.096 365.744 269.856 365.888 267.696C366.416 268.176 367.52 268.464 368.288 268.656C368.048 271.728 367.232 272.544 365.36 272.544C364.88 272.544 362.912 272.544 362.432 272.544C359.84 272.544 359.216 271.92 359.216 269.28V264.96ZM374.24 253.68H377.504C377.312 269.472 376.784 280.608 368.528 286.944C368 286.176 366.992 285.072 366.176 284.592C373.808 278.832 374.096 268.512 374.24 253.68ZM368.336 270.384L369.92 267.792C373.856 270.144 378.896 273.648 381.296 276.096L379.616 279.072C377.264 276.528 372.272 272.832 368.336 270.384ZM381.872 260.544H385.184V280.752C385.184 281.952 385.184 282.72 385.376 282.96C385.52 283.104 385.712 283.152 385.952 283.152C386.192 283.152 386.624 283.152 386.912 283.152C387.248 283.152 387.536 283.104 387.68 282.864C387.872 282.672 387.968 282.192 388.064 281.328C388.16 280.32 388.208 278.256 388.208 275.472C388.832 276.096 389.84 276.576 390.704 276.816C390.656 279.312 390.464 282.336 390.272 283.344C390.08 284.448 389.696 285.12 389.12 285.504C388.592 285.888 387.824 286.08 387.008 286.08C386.48 286.08 385.616 286.08 385.136 286.08C384.32 286.08 383.36 285.84 382.688 285.216C382.064 284.592 381.872 283.824 381.872 280.512V260.544ZM360.416 289.296L363.728 289.008C364.352 291.648 364.832 294.96 364.88 296.976L361.28 297.456C361.28 295.344 360.944 291.936 360.416 289.296ZM370.256 289.2L373.616 288.624C374.816 291.168 376.016 294.576 376.448 296.64L372.896 297.408C372.512 295.248 371.408 291.84 370.256 289.2ZM380.192 289.056L383.6 287.952C385.856 290.592 388.544 294.24 389.744 296.64L386.192 297.936C385.04 295.536 382.448 291.792 380.192 289.056ZM352.256 288.096L355.664 289.008C354.32 292.224 352.112 295.776 349.664 297.888L346.352 296.496C348.704 294.576 350.96 291.264 352.256 288.096ZM352.64 265.296H355.568C355.04 269.904 353.264 272.544 347.696 273.984C347.408 273.312 346.64 272.256 346.064 271.776C350.816 270.672 352.256 268.8 352.64 265.296ZM396.608 262.272H435.296V284.88H431.552V265.824H400.208V285.12H396.608V262.272ZM398.528 278.592H433.712V282.096H398.528V278.592ZM413.984 253.68H417.728V297.792H413.984V253.68Z" fill="white"/> -->
<!-- <path d="M692.967 129.342L780.122 164.555L634.582 524.778C633.043 528.589 628.956 530.711 624.953 529.778V529.778C598.861 523.699 573.872 513.603 550.881 499.851V499.851C547.353 497.741 545.887 493.376 547.427 489.565L692.967 129.342Z" stroke="white" stroke-width="4"/> -->
<!-- <rect width="94" height="17" transform="matrix(0.927184 0.374607 0.374607 -0.927184 692.967 129.342)" stroke="white" stroke-width="4"/> -->
<!-- <path d="M709.001 89.656L749.341 41.2371C754.626 34.8943 763.401 32.6899 771.056 35.7826L779.999 39.3956L788.941 43.0086C796.596 46.1013 801.377 53.7832 800.772 62.0168L796.156 124.869L786.49 148.793L699.335 113.58L709.001 89.656Z" stroke="white" stroke-width="4"/> -->
</g>
<defs>
<filter id="filter0_b_5_1471" x="-16" y="-16" width="992" height="592" filterUnits="userSpaceOnUse" color-interpolation-filters="sRGB">
<feFlood flood-opacity="0" result="BackgroundImageFix"/>
<feGaussianBlur in="BackgroundImageFix" stdDeviation="8"/>
<feComposite in2="SourceAlpha" operator="in" result="effect1_backgroundBlur_5_1471"/>
<feBlend mode="normal" in="SourceGraphic" in2="effect1_backgroundBlur_5_1471" result="shape"/>
</filter>
</defs>
</svg>
